<?xml version="1.0" standalone="no"?>
<!DOCTYPE svg PUBLIC "-//W3C//DTD SVG 20010904//EN"
 "http://www.w3.org/TR/2001/REC-SVG-20010904/DTD/svg10.dtd">
<svg version="1.0" xmlns="http://www.w3.org/2000/svg"
 width="512.000000pt" height="512.000000pt" viewBox="0 0 512.000000 512.000000"
 preserveAspectRatio="xMidYMid meet">
<metadata>
Created by potrace 1.14, written by Peter Selinger 2001-2017
</metadata>
<g transform="translate(0.000000,512.000000) scale(0.100000,-0.100000)"
fill="#000000" stroke="none">
<path d="M3125 5106 c-389 -96 -525 -580 -241 -860 325 -320 872 -88 868 369
-2 215 -133 397 -341 476 -68 25 -212 33 -286 15z m250 -185 c129 -57 207
-176 206 -315 0 -66 -5 -89 -36 -152 -29 -59 -92 -122 -157 -155 -36 -20 -58
-23 -143 -24 -90 0 -105 3 -153 28 -69 36 -129 99 -160 167 -37 81 -36 203 2
281 43 89 135 166 229 190 50 13 162 2 212 -20z"/>
<path d="M1800 4431 c-102 -31 -143 -83 -205 -260 -45 -127 -52 -141 -73 -141
-13 0 -32 -5 -43 -10 -23 -13 -47 -59 -43 -83 3 -24 32 -67 44 -67 5 0 -11
-59 -36 -131 -66 -193 -66 -194 -100 -197 -65 -5 -96 -90 -50 -137 l25 -25
-46 -132 c-29 -86 -46 -152 -47 -185 -1 -51 -2 -53 -35 -64 -45 -15 -107 -73
-133 -123 -27 -54 -32 -151 -10 -207 24 -62 89 -122 158 -149 124 -47 463
-164 544 -187 61 -18 98 -23 133 -19 26 3 46 2 43 -2 -2 -4 -7 -34 -11 -67 -3
-33 -21 -160 -39 -282 l-32 -222 -49 -73 c-26 -40 -167 -234 -312 -430 -145
-197 -272 -372 -282 -390 -46 -79 -55 -192 -22 -278 12 -30 21 -56 21 -57 0
-1 -221 -2 -491 -3 -525 0 -530 -1 -575 -51 -36 -39 -127 -229 -132 -275 -6
-56 25 -121 75 -154 l37 -25 2446 0 2446 0 37 25 c92 63 97 144 18 300 -29 58
-63 116 -75 129 -45 51 -58 52 -487 51 -219 0 -399 3 -400 7 -1 5 -2 506 -3
1116 l-1 1107 46 29 c170 105 162 354 -15 445 l-29 15 -2 233 c-1 256 -4 272
-60 287 -39 10 -58 4 -86 -25 -22 -24 -23 -29 -23 -252 l-1 -227 -141 0 c-107
0 -145 4 -158 14 -10 8 -115 160 -234 339 -119 178 -232 340 -252 359 -95 95
-224 145 -358 139 -42 -2 -97 -11 -122 -20 -25 -8 -48 -12 -51 -8 -4 4 -12 24
-19 46 -18 56 -85 119 -155 146 -33 12 -163 58 -289 101 -229 79 -281 90 -346
70z m321 -241 c241 -83 275 -97 297 -117 32 -31 22 -93 -40 -230 -10 -24 -23
-54 -28 -68 l-9 -24 -168 58 c-92 32 -229 80 -303 105 -75 26 -142 51 -149 55
-11 7 -6 31 24 117 56 163 70 183 121 184 12 0 127 -36 255 -80z m804 -289
c28 -12 65 -36 84 -54 18 -18 128 -174 243 -347 115 -173 226 -332 245 -352
64 -66 102 -75 332 -77 120 -1 212 -7 226 -13 64 -29 44 -140 -27 -153 -18 -3
-177 -5 -353 -3 l-321 3 -49 25 c-44 23 -90 70 -147 151 -144 205 -284 396
-297 406 -28 21 -76 15 -105 -13 -43 -44 -35 -73 47 -190 l74 -103 -103 -308
c-112 -334 -120 -375 -85 -455 19 -45 31 -60 221 -273 64 -71 129 -145 146
-164 16 -19 38 -44 49 -55 89 -93 172 -199 194 -246 l26 -55 2 -482 c3 -524 4
-515 -54 -577 -77 -81 -206 -65 -262 34 -23 41 -23 48 -26 373 -2 183 -5 339
-7 347 -3 8 -8 29 -13 45 -13 52 -74 158 -116 205 -78 85 -186 205 -225 250
-49 56 -51 58 -99 111 -22 24 -74 82 -115 129 -41 47 -82 92 -90 100 -9 8 -38
42 -66 75 -92 109 -127 203 -119 325 2 31 25 121 50 200 105 328 230 702 270
805 23 61 50 131 59 157 39 105 123 179 231 201 46 9 133 -1 180 -22z m-1215
-111 c23 -7 318 -110 499 -174 41 -14 75 -26 77 -26 3 0 -105 -313 -111 -318
-2 -2 -19 1 -37 8 -78 28 -526 183 -555 191 -40 12 -46 21 -34 51 8 18 66 184
97 277 2 8 11 10 22 6 9 -4 28 -11 42 -15z m-185 -479 c17 -5 129 -44 250 -86
121 -42 247 -85 280 -96 33 -12 62 -22 64 -24 6 -7 -192 -580 -206 -597 -29
-33 -60 -30 -211 21 -236 80 -435 150 -459 163 -45 23 -51 103 -10 137 36 29
149 5 335 -73 121 -51 147 -58 180 -43 25 12 52 55 48 78 -6 33 -17 55 -34 65
-19 13 -292 127 -329 138 -12 4 -26 20 -32 36 -8 25 -3 49 30 147 50 150 47
143 56 143 5 0 22 -4 38 -9z m1523 -369 c46 -67 115 -133 162 -157 28 -15 140
-56 148 -55 1 0 129 0 285 0 l282 0 0 -1107 0 -1108 -237 -2 -238 -2 16 37
c31 71 33 109 33 577 1 519 -2 546 -61 658 -30 55 -99 140 -269 327 -37 41
-76 84 -86 96 -10 12 -46 52 -79 90 -140 158 -164 188 -164 208 -1 26 152 496
161 496 3 0 24 -26 47 -58z m-822 -932 c71 -80 141 -158 156 -175 15 -16 26
-37 24 -45 -3 -8 -8 -35 -11 -60 -4 -25 -9 -54 -11 -65 -5 -23 -11 -55 -19
-103 -3 -19 -13 -46 -22 -60 -19 -30 -231 -307 -467 -611 -83 -106 -166 -214
-185 -240 -47 -64 -82 -101 -111 -116 -112 -58 -250 24 -250 149 0 53 10 70
134 242 64 87 159 218 210 289 52 72 118 163 147 202 111 150 159 221 175 258
14 35 35 139 48 245 3 25 8 54 10 65 2 11 7 49 12 85 4 36 9 68 10 73 1 4 2
12 3 19 1 7 4 8 9 3 5 -6 67 -75 138 -155z m434 -487 c62 -70 113 -139 128
-172 l26 -56 2 -335 c1 -338 2 -346 39 -432 7 -17 -22 -18 -525 -18 l-532 0
34 44 c35 47 50 67 412 536 231 299 262 346 289 435 17 59 17 58 17 90 0 14 2
25 4 25 2 0 50 -53 106 -117z m2248 -1268 l42 -85 -2390 0 -2390 0 42 85 42
85 2306 0 2306 0 42 -85z"/>
</g>
</svg>
